# xmcd
#
# Track frame offsets: 
#        150
#        13638
#        35741
#        52639
#        74759
#        97087
#        112863
#        137209
#        156224
#        174596
#        190718
#        206640
#        233781
#
# Disc length: 3826 seconds
#
# Revision: 0
# Processed by: cddbd v1.4PL0 Copyright (c) Steve Scherf et al.
# Submitted via: ExactAudioCopy v0.90b4
#
DISCID=b10ef00d
DTITLE=Ben Harper - Fight For Your Mind
DYEAR=1995
DGENRE=Blues
TTITLE0=Oppression
TTITLE1=Ground On Down
TTITLE2=Another Lonely Day
TTITLE3=Please Me Like You Want To
TTITLE4=Gold To Me
TTITLE5=Burn One Down
TTITLE6=Excuse Me Mr.
TTITLE7=People Lead
TTITLE8=Fight For Your Mind
TTITLE9=Give A Man A Home
TTITLE10=By My Side
TTITLE11=Power Of The Gospel
TTITLE12=God Fearing Man
EXTD=
EXTT0=
EXTT1=
EXTT2=
EXTT3=
EXTT4=
EXTT5=
EXTT6=
EXTT7=
EXTT8=
EXTT9=
EXTT10=
EXTT11=
EXTT12=
PLAYORDER=
